<mxfile host="65bd71144e">
    <diagram id="pFiNIDz0Rk2GuOqOfzWn" name="Context">
        <mxGraphModel dx="1294" dy="867" grid="1" gridSize="10" guides="1" tooltips="1" connect="1" arrows="1" fold="1" page="1" pageScale="1" pageWidth="850" pageHeight="1100" math="0" shadow="0">
            <root>
                <mxCell id="0"/>
                <mxCell id="1" parent="0"/>
                <mxCell id="2" value="Legend" style="align=left;fontSize=16;fontStyle=1;strokeColor=none;fillColor=none;fontColor=#4D4D4D;spacingTop=-8;resizable=0;" vertex="1" parent="1">
                    <mxGeometry x="610" y="20" width="180" height="30" as="geometry"/>
                </mxCell>
                <mxCell id="3" value="" style="shape=table;html=1;whiteSpace=wrap;startSize=0;container=1;collapsible=0;childLayout=tableLayout;fillColor=none;align=left;spacingLeft=10;strokeColor=none;rounded=1;arcSize=11;fontColor=#FFFFFF;resizable=0;points=[[0.25,0,0],[0.5,0,0],[0.75,0,0],[1,0.25,0],[1,0.5,0],[1,0.75,0],[0.75,1,0],[0.5,1,0],[0.25,1,0],[0,0.75,0],[0,0.5,0],[0,0.25,0]];" vertex="1" parent="1">
                    <mxGeometry x="490" y="70" width="180" height="180" as="geometry"/>
                </mxCell>
                <mxCell id="4" value="Person" style="shape=partialRectangle;html=1;whiteSpace=wrap;connectable=0;fillColor=#1E4074;top=0;left=0;bottom=0;right=0;overflow=hidden;pointerEvents=1;align=left;spacingLeft=10;strokeColor=none;fontColor=#FFFFFF;" vertex="1" parent="3">
                    <mxGeometry width="180" height="30" as="geometry"/>
                </mxCell>
                <mxCell id="5" value="Software System" style="shape=partialRectangle;html=1;whiteSpace=wrap;connectable=0;fillColor=#3162AF;top=0;left=0;bottom=0;right=0;overflow=hidden;pointerEvents=1;align=left;spacingLeft=10;fontColor=#FFFFFF;" vertex="1" parent="3">
                    <mxGeometry y="30" width="180" height="30" as="geometry"/>
                </mxCell>
                <mxCell id="6" value="Container" style="shape=partialRectangle;html=1;whiteSpace=wrap;connectable=0;fillColor=#52A2D8;top=0;left=0;bottom=0;right=0;overflow=hidden;pointerEvents=1;align=left;spacingLeft=10;fontColor=#FFFFFF;" vertex="1" parent="3">
                    <mxGeometry y="60" width="180" height="30" as="geometry"/>
                </mxCell>
                <mxCell id="7" value="Component" style="shape=partialRectangle;html=1;whiteSpace=wrap;connectable=0;fillColor=#7CBEF1;top=0;left=0;bottom=0;right=0;overflow=hidden;pointerEvents=1;align=left;spacingLeft=10;fontColor=#FFFFFF;" vertex="1" parent="3">
                    <mxGeometry y="90" width="180" height="30" as="geometry"/>
                </mxCell>
                <mxCell id="8" value="External Person" style="shape=partialRectangle;html=1;whiteSpace=wrap;connectable=0;fillColor=#6B6477;top=0;left=0;bottom=0;right=0;overflow=hidden;pointerEvents=1;align=left;spacingLeft=10;fontColor=#FFFFFF;" vertex="1" parent="3">
                    <mxGeometry y="120" width="180" height="30" as="geometry"/>
                </mxCell>
                <mxCell id="9" value="External Software System" style="shape=partialRectangle;html=1;whiteSpace=wrap;connectable=0;fillColor=#8B8496;top=0;left=0;bottom=0;right=0;overflow=hidden;pointerEvents=1;align=left;spacingLeft=10;fontColor=#FFFFFF;" vertex="1" parent="3">
                    <mxGeometry y="150" width="180" height="30" as="geometry"/>
                </mxCell>
                <mxCell id="20" style="html=1;entryX=0;entryY=0.5;entryDx=0;entryDy=0;entryPerimeter=0;exitX=0.989;exitY=0.037;exitDx=0;exitDy=0;exitPerimeter=0;" edge="1" parent="1" source="10" target="19">
                    <mxGeometry relative="1" as="geometry"/>
                </mxCell>
                <mxCell id="22" style="html=1;entryX=0;entryY=0.5;entryDx=0;entryDy=0;entryPerimeter=0;" edge="1" parent="1" source="10" target="21">
                    <mxGeometry relative="1" as="geometry"/>
                </mxCell>
                <mxCell id="24" style="html=1;entryX=0;entryY=0.5;entryDx=0;entryDy=0;entryPerimeter=0;exitX=1.001;exitY=1.025;exitDx=0;exitDy=0;exitPerimeter=0;" edge="1" parent="1" source="10" target="23">
                    <mxGeometry relative="1" as="geometry"/>
                </mxCell>
                <object placeholders="1" c4Name="MyTour" c4Type="Software System" c4Description="Hệ thống đặt Tour du lịch trực tuyến" label="&lt;font style=&quot;font-size: 16px&quot;&gt;&lt;b&gt;%c4Name%&lt;/b&gt;&lt;/font&gt;&lt;div&gt;[%c4Type%]&lt;/div&gt;&lt;br&gt;&lt;div&gt;&lt;font style=&quot;font-size: 11px&quot;&gt;&lt;font color=&quot;#cccccc&quot;&gt;%c4Description%&lt;/font&gt;&lt;/div&gt;" id="10">
                    <mxCell style="rounded=1;whiteSpace=wrap;html=1;labelBackgroundColor=none;fillColor=#1061B0;fontColor=#ffffff;align=center;arcSize=10;strokeColor=#0D5091;metaEdit=1;resizable=0;points=[[0.25,0,0],[0.5,0,0],[0.75,0,0],[1,0.25,0],[1,0.5,0],[1,0.75,0],[0.75,1,0],[0.5,1,0],[0.25,1,0],[0,0.75,0],[0,0.5,0],[0,0.25,0]];" vertex="1" parent="1">
                        <mxGeometry x="340" y="540" width="240" height="120" as="geometry"/>
                    </mxCell>
                </object>
                <mxCell id="15" style="html=1;entryX=0.5;entryY=0;entryDx=0;entryDy=0;entryPerimeter=0;" edge="1" parent="1" source="11" target="10">
                    <mxGeometry relative="1" as="geometry"/>
                </mxCell>
                <object placeholders="1" c4Name="Customer" c4Type="Person" c4Description="Khách hàng đặt Tour" label="&lt;font style=&quot;font-size: 16px&quot;&gt;&lt;b&gt;%c4Name%&lt;/b&gt;&lt;/font&gt;&lt;div&gt;[%c4Type%]&lt;/div&gt;&lt;br&gt;&lt;div&gt;&lt;font style=&quot;font-size: 11px&quot;&gt;&lt;font color=&quot;#cccccc&quot;&gt;%c4Description%&lt;/font&gt;&lt;/div&gt;" id="11">
                    <mxCell style="html=1;fontSize=11;dashed=0;whiteSpace=wrap;fillColor=#083F75;strokeColor=#06315C;fontColor=#ffffff;shape=mxgraph.c4.person2;align=center;metaEdit=1;points=[[0.5,0,0],[1,0.5,0],[1,0.75,0],[0.75,1,0],[0.5,1,0],[0.25,1,0],[0,0.75,0],[0,0.5,0]];resizable=0;" vertex="1" parent="1">
                        <mxGeometry x="30" y="250" width="200" height="180" as="geometry"/>
                    </mxCell>
                </object>
                <mxCell id="16" style="edgeStyle=orthogonalEdgeStyle;html=1;entryX=0;entryY=0.5;entryDx=0;entryDy=0;entryPerimeter=0;" edge="1" parent="1" source="12" target="10">
                    <mxGeometry relative="1" as="geometry"/>
                </mxCell>
                <object placeholders="1" c4Name="Sales" c4Type="Person" c4Description="Nhân viên bán gói tour" label="&lt;font style=&quot;font-size: 16px&quot;&gt;&lt;b&gt;%c4Name%&lt;/b&gt;&lt;/font&gt;&lt;div&gt;[%c4Type%]&lt;/div&gt;&lt;br&gt;&lt;div&gt;&lt;font style=&quot;font-size: 11px&quot;&gt;&lt;font color=&quot;#cccccc&quot;&gt;%c4Description%&lt;/font&gt;&lt;/div&gt;" id="12">
                    <mxCell style="html=1;fontSize=11;dashed=0;whiteSpace=wrap;fillColor=#083F75;strokeColor=#06315C;fontColor=#ffffff;shape=mxgraph.c4.person2;align=center;metaEdit=1;points=[[0.5,0,0],[1,0.5,0],[1,0.75,0],[0.75,1,0],[0.5,1,0],[0.25,1,0],[0,0.75,0],[0,0.5,0]];resizable=0;" vertex="1" parent="1">
                        <mxGeometry x="20" y="510" width="200" height="180" as="geometry"/>
                    </mxCell>
                </object>
                <mxCell id="17" style="html=1;entryX=0.001;entryY=0.977;entryDx=0;entryDy=0;entryPerimeter=0;exitX=1;exitY=0.5;exitDx=0;exitDy=0;exitPerimeter=0;" edge="1" parent="1" source="13" target="10">
                    <mxGeometry relative="1" as="geometry"/>
                </mxCell>
                <object placeholders="1" c4Name="Service Admin" c4Type="Person" c4Description="Quản lý dịch vụ" label="&lt;font style=&quot;font-size: 16px&quot;&gt;&lt;b&gt;%c4Name%&lt;/b&gt;&lt;/font&gt;&lt;div&gt;[%c4Type%]&lt;/div&gt;&lt;br&gt;&lt;div&gt;&lt;font style=&quot;font-size: 11px&quot;&gt;&lt;font color=&quot;#cccccc&quot;&gt;%c4Description%&lt;/font&gt;&lt;/div&gt;" id="13">
                    <mxCell style="html=1;fontSize=11;dashed=0;whiteSpace=wrap;fillColor=#083F75;strokeColor=#06315C;fontColor=#ffffff;shape=mxgraph.c4.person2;align=center;metaEdit=1;points=[[0.5,0,0],[1,0.5,0],[1,0.75,0],[0.75,1,0],[0.5,1,0],[0.25,1,0],[0,0.75,0],[0,0.5,0]];resizable=0;" vertex="1" parent="1">
                        <mxGeometry x="20" y="740" width="200" height="180" as="geometry"/>
                    </mxCell>
                </object>
                <mxCell id="18" style="html=1;entryX=0.5;entryY=1;entryDx=0;entryDy=0;entryPerimeter=0;" edge="1" parent="1" source="14" target="10">
                    <mxGeometry relative="1" as="geometry"/>
                </mxCell>
                <object placeholders="1" c4Name="System Admin" c4Type="Person" c4Description="Quản lý dịch vụ" label="&lt;font style=&quot;font-size: 16px&quot;&gt;&lt;b&gt;%c4Name%&lt;/b&gt;&lt;/font&gt;&lt;div&gt;[%c4Type%]&lt;/div&gt;&lt;br&gt;&lt;div&gt;&lt;font style=&quot;font-size: 11px&quot;&gt;&lt;font color=&quot;#cccccc&quot;&gt;%c4Description%&lt;/font&gt;&lt;/div&gt;" id="14">
                    <mxCell style="html=1;fontSize=11;dashed=0;whiteSpace=wrap;fillColor=#083F75;strokeColor=#06315C;fontColor=#ffffff;shape=mxgraph.c4.person2;align=center;metaEdit=1;points=[[0.5,0,0],[1,0.5,0],[1,0.75,0],[0.75,1,0],[0.5,1,0],[0.25,1,0],[0,0.75,0],[0,0.5,0]];resizable=0;" vertex="1" parent="1">
                        <mxGeometry x="20" y="1000" width="200" height="180" as="geometry"/>
                    </mxCell>
                </object>
                <object placeholders="1" c4Name="Payment System" c4Type="Software System" c4Description="Hệ thống thanh toán" label="&lt;font style=&quot;font-size: 16px&quot;&gt;&lt;b&gt;%c4Name%&lt;/b&gt;&lt;/font&gt;&lt;div&gt;[%c4Type%]&lt;/div&gt;&lt;br&gt;&lt;div&gt;&lt;font style=&quot;font-size: 11px&quot;&gt;&lt;font color=&quot;#cccccc&quot;&gt;%c4Description%&lt;/font&gt;&lt;/div&gt;" id="19">
                    <mxCell style="rounded=1;whiteSpace=wrap;html=1;labelBackgroundColor=none;fillColor=#8C8496;fontColor=#ffffff;align=center;arcSize=10;strokeColor=#736782;metaEdit=1;resizable=0;points=[[0.25,0,0],[0.5,0,0],[0.75,0,0],[1,0.25,0],[1,0.5,0],[1,0.75,0],[0.75,1,0],[0.5,1,0],[0.25,1,0],[0,0.75,0],[0,0.5,0],[0,0.25,0]];" vertex="1" parent="1">
                        <mxGeometry x="720" y="360" width="240" height="120" as="geometry"/>
                    </mxCell>
                </object>
                <object placeholders="1" c4Name="Invoice System" c4Type="Software System" c4Description="Hệ thống hóa đơn điện tử" label="&lt;font style=&quot;font-size: 16px&quot;&gt;&lt;b&gt;%c4Name%&lt;/b&gt;&lt;/font&gt;&lt;div&gt;[%c4Type%]&lt;/div&gt;&lt;br&gt;&lt;div&gt;&lt;font style=&quot;font-size: 11px&quot;&gt;&lt;font color=&quot;#cccccc&quot;&gt;%c4Description%&lt;/font&gt;&lt;/div&gt;" id="21">
                    <mxCell style="rounded=1;whiteSpace=wrap;html=1;labelBackgroundColor=none;fillColor=#8C8496;fontColor=#ffffff;align=center;arcSize=10;strokeColor=#736782;metaEdit=1;resizable=0;points=[[0.25,0,0],[0.5,0,0],[0.75,0,0],[1,0.25,0],[1,0.5,0],[1,0.75,0],[0.75,1,0],[0.5,1,0],[0.25,1,0],[0,0.75,0],[0,0.5,0],[0,0.25,0]];" vertex="1" parent="1">
                        <mxGeometry x="720" y="540" width="240" height="120" as="geometry"/>
                    </mxCell>
                </object>
                <object placeholders="1" c4Name="Portal System" c4Type="Software System" c4Description="Website đặt tour của cộng tác viên" label="&lt;font style=&quot;font-size: 16px&quot;&gt;&lt;b&gt;%c4Name%&lt;/b&gt;&lt;/font&gt;&lt;div&gt;[%c4Type%]&lt;/div&gt;&lt;br&gt;&lt;div&gt;&lt;font style=&quot;font-size: 11px&quot;&gt;&lt;font color=&quot;#cccccc&quot;&gt;%c4Description%&lt;/font&gt;&lt;/div&gt;" id="23">
                    <mxCell style="rounded=1;whiteSpace=wrap;html=1;labelBackgroundColor=none;fillColor=#8C8496;fontColor=#ffffff;align=center;arcSize=10;strokeColor=#736782;metaEdit=1;resizable=0;points=[[0.25,0,0],[0.5,0,0],[0.75,0,0],[1,0.25,0],[1,0.5,0],[1,0.75,0],[0.75,1,0],[0.5,1,0],[0.25,1,0],[0,0.75,0],[0,0.5,0],[0,0.25,0]];" vertex="1" parent="1">
                        <mxGeometry x="720" y="750" width="240" height="120" as="geometry"/>
                    </mxCell>
                </object>
                <mxCell id="M4wl8vZNuOG4W6uODfuV-34" style="edgeStyle=none;html=1;entryX=0;entryY=0.5;entryDx=0;entryDy=0;fontSize=25;" edge="1" parent="1" source="M4wl8vZNuOG4W6uODfuV-24" target="M4wl8vZNuOG4W6uODfuV-33">
                    <mxGeometry relative="1" as="geometry"/>
                </mxCell>
                <mxCell id="U_Cg5edLYN1qBJqryrxD-25" style="edgeStyle=none;html=1;entryX=0;entryY=0.5;entryDx=0;entryDy=0;fontSize=14;" edge="1" parent="1" source="M4wl8vZNuOG4W6uODfuV-24" target="U_Cg5edLYN1qBJqryrxD-24">
                    <mxGeometry relative="1" as="geometry"/>
                </mxCell>
                <mxCell id="M4wl8vZNuOG4W6uODfuV-24" value="&lt;font style=&quot;font-size: 25px;&quot;&gt;MyTour&lt;/font&gt;" style="rounded=0;whiteSpace=wrap;html=1;" vertex="1" parent="1">
                    <mxGeometry x="490" y="1430" width="260" height="250" as="geometry"/>
                </mxCell>
                <mxCell id="M4wl8vZNuOG4W6uODfuV-29" style="html=1;entryX=0;entryY=0.5;entryDx=0;entryDy=0;fontSize=25;" edge="1" parent="1" source="M4wl8vZNuOG4W6uODfuV-25" target="M4wl8vZNuOG4W6uODfuV-24">
                    <mxGeometry relative="1" as="geometry"/>
                </mxCell>
                <mxCell id="M4wl8vZNuOG4W6uODfuV-25" value="Customers" style="shape=umlActor;verticalLabelPosition=bottom;verticalAlign=top;html=1;outlineConnect=0;fontSize=25;" vertex="1" parent="1">
                    <mxGeometry x="100" y="1320" width="60" height="110" as="geometry"/>
                </mxCell>
                <mxCell id="M4wl8vZNuOG4W6uODfuV-30" style="edgeStyle=none;html=1;entryX=0;entryY=0.75;entryDx=0;entryDy=0;fontSize=25;" edge="1" parent="1" source="M4wl8vZNuOG4W6uODfuV-26" target="M4wl8vZNuOG4W6uODfuV-24">
                    <mxGeometry relative="1" as="geometry"/>
                </mxCell>
                <mxCell id="M4wl8vZNuOG4W6uODfuV-26" value="Sales" style="shape=umlActor;verticalLabelPosition=bottom;verticalAlign=top;html=1;outlineConnect=0;fontSize=25;" vertex="1" parent="1">
                    <mxGeometry x="90" y="1560" width="60" height="110" as="geometry"/>
                </mxCell>
                <mxCell id="M4wl8vZNuOG4W6uODfuV-31" style="edgeStyle=none;html=1;entryX=0;entryY=1;entryDx=0;entryDy=0;fontSize=25;" edge="1" parent="1" source="M4wl8vZNuOG4W6uODfuV-27" target="M4wl8vZNuOG4W6uODfuV-24">
                    <mxGeometry relative="1" as="geometry"/>
                </mxCell>
                <mxCell id="M4wl8vZNuOG4W6uODfuV-27" value="Admin" style="shape=umlActor;verticalLabelPosition=bottom;verticalAlign=top;html=1;outlineConnect=0;fontSize=25;" vertex="1" parent="1">
                    <mxGeometry x="90" y="1740" width="60" height="110" as="geometry"/>
                </mxCell>
                <mxCell id="M4wl8vZNuOG4W6uODfuV-32" style="edgeStyle=none;html=1;entryX=0.25;entryY=1;entryDx=0;entryDy=0;fontSize=25;" edge="1" parent="1" source="M4wl8vZNuOG4W6uODfuV-28" target="M4wl8vZNuOG4W6uODfuV-24">
                    <mxGeometry relative="1" as="geometry"/>
                </mxCell>
                <mxCell id="M4wl8vZNuOG4W6uODfuV-28" value="Accountant" style="shape=umlActor;verticalLabelPosition=bottom;verticalAlign=top;html=1;outlineConnect=0;fontSize=25;" vertex="1" parent="1">
                    <mxGeometry x="100" y="1940" width="60" height="110" as="geometry"/>
                </mxCell>
                <mxCell id="M4wl8vZNuOG4W6uODfuV-33" value="Billing System" style="rounded=0;whiteSpace=wrap;html=1;fontSize=25;" vertex="1" parent="1">
                    <mxGeometry x="920" y="1470" width="200" height="60" as="geometry"/>
                </mxCell>
                <mxCell id="U_Cg5edLYN1qBJqryrxD-24" value="Resevation &lt;br&gt;System" style="rounded=0;whiteSpace=wrap;html=1;fontSize=25;" vertex="1" parent="1">
                    <mxGeometry x="880" y="1710" width="290" height="60" as="geometry"/>
                </mxCell>
            </root>
        </mxGraphModel>
    </diagram>
    <diagram id="AYeBG56PchbS2qu9HLIf" name="Use-case">
        <mxGraphModel dx="1510" dy="-88" grid="1" gridSize="10" guides="1" tooltips="1" connect="1" arrows="1" fold="1" page="1" pageScale="1" pageWidth="850" pageHeight="1100" math="0" shadow="0">
            <root>
                <mxCell id="0"/>
                <mxCell id="1" parent="0"/>
                <mxCell id="NAp8E5xApoleyLeriIOX-1" style="edgeStyle=none;html=1;entryX=0;entryY=0.5;entryDx=0;entryDy=0;fontSize=25;" edge="1" parent="1" source="NAp8E5xApoleyLeriIOX-2" target="NAp8E5xApoleyLeriIOX-11">
                    <mxGeometry relative="1" as="geometry"/>
                </mxCell>
                <mxCell id="NAp8E5xApoleyLeriIOX-2" value="&lt;font style=&quot;font-size: 25px;&quot;&gt;MyTour&lt;/font&gt;" style="rounded=0;whiteSpace=wrap;html=1;" vertex="1" parent="1">
                    <mxGeometry x="480" y="1300" width="470" height="810" as="geometry"/>
                </mxCell>
                <mxCell id="NAp8E5xApoleyLeriIOX-3" style="html=1;fontSize=25;entryX=0;entryY=0.5;entryDx=0;entryDy=0;" edge="1" parent="1" source="NAp8E5xApoleyLeriIOX-4" target="NAp8E5xApoleyLeriIOX-13">
                    <mxGeometry relative="1" as="geometry">
                        <mxPoint x="430" y="1420" as="targetPoint"/>
                    </mxGeometry>
                </mxCell>
                <mxCell id="NAp8E5xApoleyLeriIOX-16" style="edgeStyle=none;html=1;entryX=0;entryY=0.5;entryDx=0;entryDy=0;fontSize=14;" edge="1" parent="1" source="NAp8E5xApoleyLeriIOX-4" target="NAp8E5xApoleyLeriIOX-14">
                    <mxGeometry relative="1" as="geometry"/>
                </mxCell>
                <mxCell id="NAp8E5xApoleyLeriIOX-17" style="edgeStyle=none;html=1;entryX=0;entryY=0.5;entryDx=0;entryDy=0;fontSize=14;" edge="1" parent="1" source="NAp8E5xApoleyLeriIOX-4" target="NAp8E5xApoleyLeriIOX-15">
                    <mxGeometry relative="1" as="geometry"/>
                </mxCell>
                <mxCell id="NAp8E5xApoleyLeriIOX-20" style="edgeStyle=none;html=1;entryX=0;entryY=0.5;entryDx=0;entryDy=0;fontSize=14;" edge="1" parent="1" source="NAp8E5xApoleyLeriIOX-4" target="NAp8E5xApoleyLeriIOX-19">
                    <mxGeometry relative="1" as="geometry"/>
                </mxCell>
                <mxCell id="NAp8E5xApoleyLeriIOX-22" style="edgeStyle=none;html=1;entryX=0;entryY=0.5;entryDx=0;entryDy=0;fontSize=14;" edge="1" parent="1" source="NAp8E5xApoleyLeriIOX-4" target="NAp8E5xApoleyLeriIOX-21">
                    <mxGeometry relative="1" as="geometry"/>
                </mxCell>
                <mxCell id="NAp8E5xApoleyLeriIOX-4" value="Customers" style="shape=umlActor;verticalLabelPosition=bottom;verticalAlign=top;html=1;outlineConnect=0;fontSize=25;" vertex="1" parent="1">
                    <mxGeometry x="100" y="1320" width="60" height="110" as="geometry"/>
                </mxCell>
                <mxCell id="NAp8E5xApoleyLeriIOX-5" style="edgeStyle=none;html=1;entryX=0;entryY=0.5;entryDx=0;entryDy=0;fontSize=25;" edge="1" parent="1" source="NAp8E5xApoleyLeriIOX-6" target="NAp8E5xApoleyLeriIOX-13">
                    <mxGeometry relative="1" as="geometry"/>
                </mxCell>
                <mxCell id="NAp8E5xApoleyLeriIOX-23" style="edgeStyle=none;html=1;entryX=0;entryY=0.5;entryDx=0;entryDy=0;fontSize=14;" edge="1" parent="1" source="NAp8E5xApoleyLeriIOX-6" target="NAp8E5xApoleyLeriIOX-19">
                    <mxGeometry relative="1" as="geometry"/>
                </mxCell>
                <mxCell id="NAp8E5xApoleyLeriIOX-24" style="edgeStyle=none;html=1;entryX=0;entryY=0.5;entryDx=0;entryDy=0;fontSize=14;" edge="1" parent="1" source="NAp8E5xApoleyLeriIOX-6" target="NAp8E5xApoleyLeriIOX-15">
                    <mxGeometry relative="1" as="geometry"/>
                </mxCell>
                <mxCell id="NAp8E5xApoleyLeriIOX-6" value="Sales" style="shape=umlActor;verticalLabelPosition=bottom;verticalAlign=top;html=1;outlineConnect=0;fontSize=25;" vertex="1" parent="1">
                    <mxGeometry x="90" y="1505" width="60" height="110" as="geometry"/>
                </mxCell>
                <mxCell id="NAp8E5xApoleyLeriIOX-7" style="edgeStyle=none;html=1;entryX=0;entryY=0.75;entryDx=0;entryDy=0;fontSize=25;" edge="1" parent="1" source="NAp8E5xApoleyLeriIOX-8" target="NAp8E5xApoleyLeriIOX-2">
                    <mxGeometry relative="1" as="geometry"/>
                </mxCell>
                <mxCell id="NAp8E5xApoleyLeriIOX-8" value="Admin" style="shape=umlActor;verticalLabelPosition=bottom;verticalAlign=top;html=1;outlineConnect=0;fontSize=25;" vertex="1" parent="1">
                    <mxGeometry x="90" y="1740" width="60" height="110" as="geometry"/>
                </mxCell>
                <mxCell id="NAp8E5xApoleyLeriIOX-9" style="edgeStyle=none;html=1;entryX=0;entryY=1;entryDx=0;entryDy=0;fontSize=25;" edge="1" parent="1" source="NAp8E5xApoleyLeriIOX-10" target="NAp8E5xApoleyLeriIOX-2">
                    <mxGeometry relative="1" as="geometry"/>
                </mxCell>
                <mxCell id="NAp8E5xApoleyLeriIOX-10" value="Accountant" style="shape=umlActor;verticalLabelPosition=bottom;verticalAlign=top;html=1;outlineConnect=0;fontSize=25;" vertex="1" parent="1">
                    <mxGeometry x="80" y="1960" width="60" height="110" as="geometry"/>
                </mxCell>
                <mxCell id="NAp8E5xApoleyLeriIOX-11" value="Billing System" style="rounded=0;whiteSpace=wrap;html=1;fontSize=25;" vertex="1" parent="1">
                    <mxGeometry x="1210" y="1200" width="200" height="60" as="geometry"/>
                </mxCell>
                <mxCell id="NAp8E5xApoleyLeriIOX-13" value="&lt;font style=&quot;font-size: 14px;&quot;&gt;BookTour&lt;/font&gt;" style="ellipse;whiteSpace=wrap;html=1;fontSize=25;" vertex="1" parent="1">
                    <mxGeometry x="520" y="1390" width="80" height="60" as="geometry"/>
                </mxCell>
                <mxCell id="NAp8E5xApoleyLeriIOX-14" value="&lt;font style=&quot;font-size: 14px;&quot;&gt;ListTour&lt;/font&gt;" style="ellipse;whiteSpace=wrap;html=1;fontSize=25;" vertex="1" parent="1">
                    <mxGeometry x="510" y="1540" width="100" height="40" as="geometry"/>
                </mxCell>
                <mxCell id="NAp8E5xApoleyLeriIOX-15" value="&lt;font style=&quot;font-size: 14px;&quot;&gt;ViewTour&lt;/font&gt;" style="ellipse;whiteSpace=wrap;html=1;fontSize=25;" vertex="1" parent="1">
                    <mxGeometry x="530" y="1600" width="80" height="40" as="geometry"/>
                </mxCell>
                <mxCell id="NAp8E5xApoleyLeriIOX-19" value="&lt;font style=&quot;font-size: 14px;&quot;&gt;AddParticipant&lt;/font&gt;" style="ellipse;whiteSpace=wrap;html=1;fontSize=25;" vertex="1" parent="1">
                    <mxGeometry x="520" y="1460" width="110" height="50" as="geometry"/>
                </mxCell>
                <mxCell id="NAp8E5xApoleyLeriIOX-21" value="&lt;font style=&quot;font-size: 14px;&quot;&gt;Share2FB&lt;/font&gt;" style="ellipse;whiteSpace=wrap;html=1;fontSize=25;" vertex="1" parent="1">
                    <mxGeometry x="510" y="1330" width="90" height="40" as="geometry"/>
                </mxCell>
            </root>
        </mxGraphModel>
    </diagram>
    <diagram id="uxwfmmsEQdhEVAPut18g" name="HLD">
        <mxGraphModel dx="765" dy="714" grid="1" gridSize="10" guides="1" tooltips="1" connect="1" arrows="1" fold="1" page="1" pageScale="1" pageWidth="850" pageHeight="1100" math="0" shadow="0">
            <root>
                <mxCell id="0"/>
                <mxCell id="1" parent="0"/>
            </root>
        </mxGraphModel>
    </diagram>
</mxfile>